# MagicaVoxel @ Ephtracy

# group
o 

# material
mtllib temp_house_playground.mtl
usemtl palette

# normals
vn -1 0 0
vn 1 0 0
vn 0 0 1
vn 0 0 -1
vn 0 -1 0
vn 0 1 0

# texcoords
vt 0.369141 0.5
vt 0.373047 0.5
vt 0.466797 0.5
vt 0.818359 0.5

# verts
v -5 0 5
v -5 0 -5
v -5 0.1 5
v -5 0.1 -5
v -0.6 0.1 1
v -0.6 0.1 0.0999999
v -0.6 0.2 0.9
v -0.6 0.2 0.7
v -0.6 0.2 0.6
v -0.6 0.2 0.5
v -0.6 0.2 0.4
v -0.6 0.2 0.2
v -0.6 0.3 0.9
v -0.6 0.3 0.7
v -0.6 0.3 0.6
v -0.6 0.3 0.5
v -0.6 0.3 0.4
v -0.6 0.3 0.2
v -0.6 0.4 1
v -0.6 0.4 0.0999999
v -0.5 0.4 0.9
v -0.5 0.4 0.2
v -0.5 0.5 0.9
v -0.5 0.5 0.2
v -0.3 0.2 1
v -0.3 0.2 0.9
v -0.3 0.3 1
v -0.3 0.3 0.9
v -0.0999999 0.1 1
v -0.0999999 0.1 0.9
v -0.0999999 0.3 1
v -0.0999999 0.3 0.9
v 0.1 0.2 1
v 0.1 0.2 0.9
v 0.1 0.3 1
v 0.1 0.3 0.9
v 0.2 0.1 0.9
v 0.2 0.1 0.2
v 0.2 0.2 0.9
v 0.2 0.2 0.7
v 0.2 0.2 0.6
v 0.2 0.2 0.5
v 0.2 0.2 0.4
v 0.2 0.2 0.2
v 0.2 0.3 0.9
v 0.2 0.3 0.7
v 0.2 0.3 0.6
v 0.2 0.3 0.5
v 0.2 0.3 0.4
v 0.2 0.3 0.2
v 0.2 0.4 0.9
v 0.2 0.4 0.2
v 0.4 0.3 1
v 0.4 0.3 0.3
v 0.4 0.4 1
v 0.4 0.4 0.3
v 0.5 0.4 0.9
v 0.5 0.4 0.4
v 0.5 0.5 0.9
v 0.5 0.5 0.4
v 0.5 0.6 0.9
v 0.5 0.6 0.4
v 0.5 0.8 0.9
v 0.5 0.8 0.4
v 0.6 0.5 0.8
v 0.6 0.5 0.5
v 0.6 0.6 0.8
v 0.6 0.6 0.5
v 0.6 0.8 0.8
v 0.6 0.8 0.5
v 0.6 0.9 0.8
v 0.6 0.9 0.5
v 0.7 0.1 0.7
v 0.7 0.1 0.6
v 0.7 0.3 0.7
v 0.7 0.3 0.6
v -0.5 0.1 0.9
v -0.5 0.1 0.2
v -0.5 0.2 0.9
v -0.5 0.2 0.7
v -0.5 0.2 0.6
v -0.5 0.2 0.5
v -0.5 0.2 0.4
v -0.5 0.2 0.2
v -0.5 0.3 0.9
v -0.5 0.3 0.7
v -0.5 0.3 0.6
v -0.5 0.3 0.5
v -0.5 0.3 0.4
v -0.5 0.3 0.2
v -0.5 0.4 0.9
v -0.5 0.4 0.2
v -0.4 0.2 1
v -0.4 0.2 0.9
v -0.4 0.3 1
v -0.4 0.3 0.9
v -0.2 0.1 1
v -0.2 0.1 0.9
v -0.2 0.3 1
v -0.2 0.3 0.9
v 0 0.2 1
v 0 0.2 0.9
v 0 0.3 1
v 0 0.3 0.9
v 0.2 0.4 0.9
v 0.2 0.4 0.2
v 0.2 0.5 0.9
v 0.2 0.5 0.2
v 0.3 0.1 1
v 0.3 0.1 0.0999999
v 0.3 0.2 0.9
v 0.3 0.2 0.7
v 0.3 0.2 0.6
v 0.3 0.2 0.5
v 0.3 0.2 0.4
v 0.3 0.2 0.2
v 0.3 0.3 0.9
v 0.3 0.3 0.7
v 0.3 0.3 0.6
v 0.3 0.3 0.5
v 0.3 0.3 0.4
v 0.3 0.3 0.2
v 0.3 0.4 1
v 0.3 0.4 0.0999999
v 0.8 0.1 0.7
v 0.8 0.1 0.6
v 0.8 0.3 0.7
v 0.8 0.3 0.6
v 0.9 0.5 0.8
v 0.9 0.5 0.5
v 0.9 0.6 0.8
v 0.9 0.6 0.5
v 0.9 0.8 0.8
v 0.9 0.8 0.5
v 0.9 0.9 0.8
v 0.9 0.9 0.5
v 1 0.4 0.9
v 1 0.4 0.4
v 1 0.5 0.9
v 1 0.5 0.4
v 1 0.6 0.9
v 1 0.6 0.4
v 1 0.8 0.9
v 1 0.8 0.4
v 1.1 0.3 1
v 1.1 0.3 0.3
v 1.1 0.4 1
v 1.1 0.4 0.3
v 5 0 5
v 5 0 -5
v 5 0.1 5
v 5 0.1 -5
v -5 0 5
v -5 0.1 5
v 5 0 5
v 5 0.1 5
v -0.6 0.1 1
v -0.6 0.4 1
v -0.4 0.2 1
v -0.4 0.3 1
v -0.3 0.2 1
v -0.3 0.3 1
v -0.2 0.1 1
v -0.2 0.3 1
v -0.0999999 0.1 1
v -0.0999999 0.3 1
v 0 0.2 1
v 0 0.3 1
v 0.1 0.2 1
v 0.1 0.3 1
v 0.3 0.1 1
v 0.3 0.4 1
v 0.4 0.3 1
v 0.4 0.4 1
v 1.1 0.3 1
v 1.1 0.4 1
v -0.5 0.4 0.9
v -0.5 0.5 0.9
v 0.2 0.4 0.9
v 0.2 0.5 0.9
v 0.5 0.4 0.9
v 0.5 0.5 0.9
v 0.5 0.6 0.9
v 0.5 0.8 0.9
v 1 0.4 0.9
v 1 0.5 0.9
v 1 0.6 0.9
v 1 0.8 0.9
v 0.6 0.5 0.8
v 0.6 0.6 0.8
v 0.6 0.8 0.8
v 0.6 0.9 0.8
v 0.9 0.5 0.8
v 0.9 0.6 0.8
v 0.9 0.8 0.8
v 0.9 0.9 0.8
v -0.6 0.2 0.7
v -0.6 0.3 0.7
v -0.5 0.2 0.7
v -0.5 0.3 0.7
v 0.2 0.2 0.7
v 0.2 0.3 0.7
v 0.3 0.2 0.7
v 0.3 0.3 0.7
v 0.7 0.1 0.7
v 0.7 0.3 0.7
v 0.8 0.1 0.7
v 0.8 0.3 0.7
v -0.6 0.2 0.5
v -0.6 0.3 0.5
v -0.5 0.2 0.5
v -0.5 0.3 0.5
v 0.2 0.2 0.5
v 0.2 0.3 0.5
v 0.3 0.2 0.5
v 0.3 0.3 0.5
v -0.6 0.2 0.2
v -0.6 0.3 0.2
v -0.5 0.1 0.2
v -0.5 0.2 0.2
v -0.5 0.3 0.2
v -0.5 0.4 0.2
v 0.2 0.1 0.2
v 0.2 0.2 0.2
v 0.2 0.3 0.2
v 0.2 0.4 0.2
v 0.3 0.2 0.2
v 0.3 0.3 0.2
v -0.6 0.2 0.9
v -0.6 0.3 0.9
v -0.5 0.1 0.9
v -0.5 0.2 0.9
v -0.5 0.3 0.9
v -0.5 0.4 0.9
v -0.4 0.2 0.9
v -0.4 0.3 0.9
v -0.3 0.2 0.9
v -0.3 0.3 0.9
v -0.2 0.1 0.9
v -0.2 0.3 0.9
v -0.0999999 0.1 0.9
v -0.0999999 0.3 0.9
v 0 0.2 0.9
v 0 0.3 0.9
v 0.1 0.2 0.9
v 0.1 0.3 0.9
v 0.2 0.1 0.9
v 0.2 0.2 0.9
v 0.2 0.3 0.9
v 0.2 0.4 0.9
v 0.3 0.2 0.9
v 0.3 0.3 0.9
v -0.6 0.2 0.6
v -0.6 0.3 0.6
v -0.5 0.2 0.6
v -0.5 0.3 0.6
v 0.2 0.2 0.6
v 0.2 0.3 0.6
v 0.3 0.2 0.6
v 0.3 0.3 0.6
v 0.7 0.1 0.6
v 0.7 0.3 0.6
v 0.8 0.1 0.6
v 0.8 0.3 0.6
v 0.6 0.5 0.5
v 0.6 0.6 0.5
v 0.6 0.8 0.5
v 0.6 0.9 0.5
v 0.9 0.5 0.5
v 0.9 0.6 0.5
v 0.9 0.8 0.5
v 0.9 0.9 0.5
v -0.6 0.2 0.4
v -0.6 0.3 0.4
v -0.5 0.2 0.4
v -0.5 0.3 0.4
v 0.2 0.2 0.4
v 0.2 0.3 0.4
v 0.3 0.2 0.4
v 0.3 0.3 0.4
v 0.5 0.4 0.4
v 0.5 0.5 0.4
v 0.5 0.6 0.4
v 0.5 0.8 0.4
v 1 0.4 0.4
v 1 0.5 0.4
v 1 0.6 0.4
v 1 0.8 0.4
v 0.4 0.3 0.3
v 0.4 0.4 0.3
v 1.1 0.3 0.3
v 1.1 0.4 0.3
v -0.5 0.4 0.2
v -0.5 0.5 0.2
v 0.2 0.4 0.2
v 0.2 0.5 0.2
v -0.6 0.1 0.0999999
v -0.6 0.4 0.0999999
v 0.3 0.1 0.0999999
v 0.3 0.4 0.0999999
v -5 0 -5
v -5 0.1 -5
v 5 0 -5
v 5 0.1 -5
v -5 0 5
v 5 0 5
v -5 0 -5
v 5 0 -5
v -0.4 0.3 1
v -0.3 0.3 1
v -0.2 0.3 1
v -0.0999999 0.3 1
v 0 0.3 1
v 0.1 0.3 1
v 0.4 0.3 1
v 1.1 0.3 1
v -0.6 0.3 0.9
v -0.5 0.3 0.9
v -0.4 0.3 0.9
v -0.3 0.3 0.9
v -0.2 0.3 0.9
v -0.0999999 0.3 0.9
v 0 0.3 0.9
v 0.1 0.3 0.9
v 0.2 0.3 0.9
v 0.3 0.3 0.9
v -0.6 0.3 0.7
v -0.5 0.3 0.7
v 0.2 0.3 0.7
v 0.3 0.3 0.7
v 0.7 0.3 0.7
v 0.8 0.3 0.7
v -0.6 0.3 0.6
v -0.5 0.3 0.6
v 0.2 0.3 0.6
v 0.3 0.3 0.6
v 0.7 0.3 0.6
v 0.8 0.3 0.6
v -0.6 0.3 0.5
v -0.5 0.3 0.5
v 0.2 0.3 0.5
v 0.3 0.3 0.5
v -0.6 0.3 0.4
v -0.5 0.3 0.4
v 0.2 0.3 0.4
v 0.3 0.3 0.4
v 0.4 0.3 0.3
v 1.1 0.3 0.3
v -0.6 0.3 0.2
v -0.5 0.3 0.2
v 0.2 0.3 0.2
v 0.3 0.3 0.2
v -0.5 0.4 0.9
v 0.2 0.4 0.9
v -0.5 0.4 0.2
v 0.2 0.4 0.2
v 0.5 0.6 0.9
v 1 0.6 0.9
v 0.6 0.6 0.8
v 0.9 0.6 0.8
v 0.6 0.6 0.5
v 0.9 0.6 0.5
v 0.5 0.6 0.4
v 1 0.6 0.4
v -5 0.1 5
v 5 0.1 5
v -0.6 0.1 1
v -0.2 0.1 1
v -0.0999999 0.1 1
v 0.3 0.1 1
v -0.5 0.1 0.9
v -0.2 0.1 0.9
v -0.0999999 0.1 0.9
v 0.2 0.1 0.9
v 0.7 0.1 0.7
v 0.8 0.1 0.7
v 0.7 0.1 0.6
v 0.8 0.1 0.6
v -0.5 0.1 0.2
v 0.2 0.1 0.2
v -0.6 0.1 0.0999999
v 0.3 0.1 0.0999999
v -5 0.1 -5
v 5 0.1 -5
v -0.4 0.2 1
v -0.3 0.2 1
v 0 0.2 1
v 0.1 0.2 1
v -0.6 0.2 0.9
v -0.5 0.2 0.9
v -0.4 0.2 0.9
v -0.3 0.2 0.9
v 0 0.2 0.9
v 0.1 0.2 0.9
v 0.2 0.2 0.9
v 0.3 0.2 0.9
v -0.6 0.2 0.7
v -0.5 0.2 0.7
v 0.2 0.2 0.7
v 0.3 0.2 0.7
v -0.6 0.2 0.6
v -0.5 0.2 0.6
v 0.2 0.2 0.6
v 0.3 0.2 0.6
v -0.6 0.2 0.5
v -0.5 0.2 0.5
v 0.2 0.2 0.5
v 0.3 0.2 0.5
v -0.6 0.2 0.4
v -0.5 0.2 0.4
v 0.2 0.2 0.4
v 0.3 0.2 0.4
v -0.6 0.2 0.2
v -0.5 0.2 0.2
v 0.2 0.2 0.2
v 0.3 0.2 0.2
v -0.6 0.4 1
v 0.3 0.4 1
v 0.4 0.4 1
v 1.1 0.4 1
v -0.5 0.4 0.9
v 0.2 0.4 0.9
v 0.5 0.4 0.9
v 1 0.4 0.9
v 0.5 0.4 0.4
v 1 0.4 0.4
v 0.4 0.4 0.3
v 1.1 0.4 0.3
v -0.5 0.4 0.2
v 0.2 0.4 0.2
v -0.6 0.4 0.0999999
v 0.3 0.4 0.0999999
v -0.5 0.5 0.9
v 0.2 0.5 0.9
v 0.5 0.5 0.9
v 1 0.5 0.9
v 0.6 0.5 0.8
v 0.9 0.5 0.8
v 0.6 0.5 0.5
v 0.9 0.5 0.5
v 0.5 0.5 0.4
v 1 0.5 0.4
v -0.5 0.5 0.2
v 0.2 0.5 0.2
v 0.5 0.8 0.9
v 1 0.8 0.9
v 0.6 0.8 0.8
v 0.9 0.8 0.8
v 0.6 0.8 0.5
v 0.9 0.8 0.5
v 0.5 0.8 0.4
v 1 0.8 0.4
v 0.6 0.9 0.8
v 0.9 0.9 0.8
v 0.6 0.9 0.5
v 0.9 0.9 0.5

# faces
f 3/4/1 2/4/1 1/4/1
f 4/4/1 2/4/1 3/4/1
f 7/1/1 6/1/1 5/1/1
f 8/1/1 6/1/1 7/1/1
f 9/1/1 6/1/1 8/1/1
f 10/1/1 6/1/1 9/1/1
f 11/1/1 6/1/1 10/1/1
f 12/1/1 6/1/1 11/1/1
f 13/1/1 7/1/1 5/1/1
f 14/1/1 9/1/1 8/1/1
f 15/1/1 9/1/1 14/1/1
f 16/1/1 11/1/1 10/1/1
f 17/1/1 11/1/1 16/1/1
f 18/1/1 6/1/1 12/1/1
f 19/1/1 17/1/1 16/1/1
f 19/1/1 18/1/1 17/1/1
f 19/1/1 15/1/1 14/1/1
f 19/1/1 13/1/1 5/1/1
f 19/1/1 16/1/1 15/1/1
f 19/1/1 14/1/1 13/1/1
f 20/1/1 6/1/1 18/1/1
f 20/1/1 18/1/1 19/1/1
f 23/1/1 22/1/1 21/1/1
f 24/1/1 22/1/1 23/1/1
f 27/1/1 26/1/1 25/1/1
f 28/1/1 26/1/1 27/1/1
f 31/1/1 30/1/1 29/1/1
f 32/1/1 30/1/1 31/1/1
f 35/1/1 34/1/1 33/1/1
f 36/1/1 34/1/1 35/1/1
f 39/1/1 38/1/1 37/1/1
f 40/1/1 38/1/1 39/1/1
f 41/1/1 38/1/1 40/1/1
f 42/1/1 38/1/1 41/1/1
f 43/1/1 38/1/1 42/1/1
f 44/1/1 38/1/1 43/1/1
f 46/1/1 41/1/1 40/1/1
f 47/1/1 41/1/1 46/1/1
f 48/1/1 43/1/1 42/1/1
f 49/1/1 43/1/1 48/1/1
f 51/1/1 47/1/1 46/1/1
f 51/1/1 50/1/1 49/1/1
f 51/1/1 49/1/1 48/1/1
f 51/1/1 48/1/1 47/1/1
f 51/1/1 46/1/1 45/1/1
f 52/1/1 50/1/1 51/1/1
f 55/3/1 54/3/1 53/3/1
f 56/3/1 54/3/1 55/3/1
f 59/3/1 58/3/1 57/3/1
f 60/3/1 58/3/1 59/3/1
f 63/3/1 62/3/1 61/3/1
f 64/3/1 62/3/1 63/3/1
f 67/3/1 66/3/1 65/3/1
f 68/3/1 66/3/1 67/3/1
f 71/3/1 70/3/1 69/3/1
f 72/3/1 70/3/1 71/3/1
f 75/2/1 74/2/1 73/2/1
f 76/2/1 74/2/1 75/2/1
f 77/1/2 78/1/2 79/1/2
f 79/1/2 78/1/2 80/1/2
f 80/1/2 78/1/2 81/1/2
f 81/1/2 78/1/2 82/1/2
f 82/1/2 78/1/2 83/1/2
f 83/1/2 78/1/2 84/1/2
f 80/1/2 81/1/2 86/1/2
f 86/1/2 81/1/2 87/1/2
f 82/1/2 83/1/2 88/1/2
f 88/1/2 83/1/2 89/1/2
f 86/1/2 87/1/2 91/1/2
f 89/1/2 90/1/2 91/1/2
f 88/1/2 89/1/2 91/1/2
f 87/1/2 88/1/2 91/1/2
f 85/1/2 86/1/2 91/1/2
f 91/1/2 90/1/2 92/1/2
f 93/1/2 94/1/2 95/1/2
f 95/1/2 94/1/2 96/1/2
f 97/1/2 98/1/2 99/1/2
f 99/1/2 98/1/2 100/1/2
f 101/1/2 102/1/2 103/1/2
f 103/1/2 102/1/2 104/1/2
f 105/1/2 106/1/2 107/1/2
f 107/1/2 106/1/2 108/1/2
f 109/1/2 110/1/2 111/1/2
f 111/1/2 110/1/2 112/1/2
f 112/1/2 110/1/2 113/1/2
f 113/1/2 110/1/2 114/1/2
f 114/1/2 110/1/2 115/1/2
f 115/1/2 110/1/2 116/1/2
f 109/1/2 111/1/2 117/1/2
f 112/1/2 113/1/2 118/1/2
f 118/1/2 113/1/2 119/1/2
f 114/1/2 115/1/2 120/1/2
f 120/1/2 115/1/2 121/1/2
f 116/1/2 110/1/2 122/1/2
f 120/1/2 121/1/2 123/1/2
f 121/1/2 122/1/2 123/1/2
f 118/1/2 119/1/2 123/1/2
f 109/1/2 117/1/2 123/1/2
f 119/1/2 120/1/2 123/1/2
f 117/1/2 118/1/2 123/1/2
f 122/1/2 110/1/2 124/1/2
f 123/1/2 122/1/2 124/1/2
f 125/2/2 126/2/2 127/2/2
f 127/2/2 126/2/2 128/2/2
f 129/3/2 130/3/2 131/3/2
f 131/3/2 130/3/2 132/3/2
f 133/3/2 134/3/2 135/3/2
f 135/3/2 134/3/2 136/3/2
f 137/3/2 138/3/2 139/3/2
f 139/3/2 138/3/2 140/3/2
f 141/3/2 142/3/2 143/3/2
f 143/3/2 142/3/2 144/3/2
f 145/3/2 146/3/2 147/3/2
f 147/3/2 146/3/2 148/3/2
f 149/4/2 150/4/2 151/4/2
f 151/4/2 150/4/2 152/4/2
f 155/4/3 154/4/3 153/4/3
f 156/4/3 154/4/3 155/4/3
f 159/1/3 158/1/3 157/1/3
f 160/1/3 158/1/3 159/1/3
f 161/1/3 159/1/3 157/1/3
f 162/1/3 158/1/3 160/1/3
f 163/1/3 161/1/3 157/1/3
f 163/1/3 162/1/3 161/1/3
f 164/1/3 158/1/3 162/1/3
f 164/1/3 162/1/3 163/1/3
f 166/1/3 158/1/3 164/1/3
f 167/1/3 166/1/3 165/1/3
f 168/1/3 158/1/3 166/1/3
f 168/1/3 166/1/3 167/1/3
f 169/1/3 167/1/3 165/1/3
f 170/1/3 158/1/3 168/1/3
f 171/1/3 169/1/3 165/1/3
f 171/1/3 170/1/3 169/1/3
f 172/1/3 158/1/3 170/1/3
f 172/1/3 170/1/3 171/1/3
f 175/3/3 174/3/3 173/3/3
f 176/3/3 174/3/3 175/3/3
f 179/1/3 178/1/3 177/1/3
f 180/1/3 178/1/3 179/1/3
f 185/3/3 182/3/3 181/3/3
f 186/3/3 182/3/3 185/3/3
f 187/3/3 184/3/3 183/3/3
f 188/3/3 184/3/3 187/3/3
f 193/3/3 190/3/3 189/3/3
f 194/3/3 190/3/3 193/3/3
f 195/3/3 192/3/3 191/3/3
f 196/3/3 192/3/3 195/3/3
f 199/1/3 198/1/3 197/1/3
f 200/1/3 198/1/3 199/1/3
f 203/1/3 202/1/3 201/1/3
f 204/1/3 202/1/3 203/1/3
f 207/2/3 206/2/3 205/2/3
f 208/2/3 206/2/3 207/2/3
f 211/1/3 210/1/3 209/1/3
f 212/1/3 210/1/3 211/1/3
f 215/1/3 214/1/3 213/1/3
f 216/1/3 214/1/3 215/1/3
f 220/1/3 218/1/3 217/1/3
f 221/1/3 218/1/3 220/1/3
f 223/1/3 220/1/3 219/1/3
f 223/1/3 222/1/3 221/1/3
f 223/1/3 221/1/3 220/1/3
f 224/1/3 222/1/3 223/1/3
f 225/1/3 222/1/3 224/1/3
f 226/1/3 222/1/3 225/1/3
f 227/1/3 225/1/3 224/1/3
f 228/1/3 225/1/3 227/1/3
f 229/1/4 230/1/4 232/1/4
f 232/1/4 230/1/4 233/1/4
f 231/1/4 232/1/4 235/1/4
f 233/1/4 234/1/4 235/1/4
f 232/1/4 233/1/4 235/1/4
f 235/1/4 234/1/4 236/1/4
f 231/1/4 235/1/4 237/1/4
f 236/1/4 234/1/4 238/1/4
f 231/1/4 237/1/4 239/1/4
f 237/1/4 238/1/4 239/1/4
f 238/1/4 234/1/4 240/1/4
f 239/1/4 238/1/4 240/1/4
f 240/1/4 234/1/4 242/1/4
f 241/1/4 242/1/4 243/1/4
f 242/1/4 234/1/4 244/1/4
f 243/1/4 242/1/4 244/1/4
f 241/1/4 243/1/4 245/1/4
f 244/1/4 234/1/4 246/1/4
f 241/1/4 245/1/4 247/1/4
f 245/1/4 246/1/4 247/1/4
f 247/1/4 246/1/4 248/1/4
f 246/1/4 234/1/4 249/1/4
f 248/1/4 246/1/4 249/1/4
f 249/1/4 234/1/4 250/1/4
f 248/1/4 249/1/4 251/1/4
f 251/1/4 249/1/4 252/1/4
f 253/1/4 254/1/4 255/1/4
f 255/1/4 254/1/4 256/1/4
f 257/1/4 258/1/4 259/1/4
f 259/1/4 258/1/4 260/1/4
f 261/2/4 262/2/4 263/2/4
f 263/2/4 262/2/4 264/2/4
f 265/3/4 266/3/4 269/3/4
f 269/3/4 266/3/4 270/3/4
f 267/3/4 268/3/4 271/3/4
f 271/3/4 268/3/4 272/3/4
f 273/1/4 274/1/4 275/1/4
f 275/1/4 274/1/4 276/1/4
f 277/1/4 278/1/4 279/1/4
f 279/1/4 278/1/4 280/1/4
f 281/3/4 282/3/4 285/3/4
f 285/3/4 282/3/4 286/3/4
f 283/3/4 284/3/4 287/3/4
f 287/3/4 284/3/4 288/3/4
f 289/3/4 290/3/4 291/3/4
f 291/3/4 290/3/4 292/3/4
f 293/1/4 294/1/4 295/1/4
f 295/1/4 294/1/4 296/1/4
f 297/1/4 298/1/4 299/1/4
f 299/1/4 298/1/4 300/1/4
f 301/4/4 302/4/4 303/4/4
f 303/4/4 302/4/4 304/4/4
f 307/4/5 306/4/5 305/4/5
f 308/4/5 306/4/5 307/4/5
f 319/1/5 310/1/5 309/1/5
f 320/1/5 310/1/5 319/1/5
f 321/1/5 312/1/5 311/1/5
f 322/1/5 312/1/5 321/1/5
f 323/1/5 314/1/5 313/1/5
f 324/1/5 314/1/5 323/1/5
f 327/1/5 318/1/5 317/1/5
f 328/1/5 318/1/5 327/1/5
f 329/1/5 326/1/5 325/1/5
f 330/1/5 326/1/5 329/1/5
f 331/3/5 316/3/5 315/3/5
f 332/3/5 316/3/5 331/3/5
f 337/3/5 331/3/5 315/3/5
f 338/3/5 316/3/5 332/3/5
f 339/1/5 334/1/5 333/1/5
f 340/1/5 334/1/5 339/1/5
f 341/1/5 336/1/5 335/1/5
f 342/1/5 336/1/5 341/1/5
f 347/3/5 337/3/5 315/3/5
f 347/3/5 338/3/5 337/3/5
f 348/3/5 316/3/5 338/3/5
f 348/3/5 338/3/5 347/3/5
f 349/1/5 344/1/5 343/1/5
f 350/1/5 344/1/5 349/1/5
f 351/1/5 346/1/5 345/1/5
f 352/1/5 346/1/5 351/1/5
f 355/1/5 354/1/5 353/1/5
f 356/1/5 354/1/5 355/1/5
f 359/3/5 358/3/5 357/3/5
f 360/3/5 358/3/5 359/3/5
f 361/3/5 359/3/5 357/3/5
f 362/3/5 358/3/5 360/3/5
f 363/3/5 361/3/5 357/3/5
f 363/3/5 362/3/5 361/3/5
f 364/3/5 358/3/5 362/3/5
f 364/3/5 362/3/5 363/3/5
f 365/4/6 366/4/6 367/4/6
f 367/4/6 366/4/6 368/4/6
f 368/4/6 366/4/6 369/4/6
f 369/4/6 366/4/6 370/4/6
f 368/4/6 369/4/6 372/4/6
f 372/4/6 369/4/6 373/4/6
f 370/4/6 366/4/6 375/4/6
f 375/4/6 366/4/6 376/4/6
f 370/4/6 375/4/6 377/4/6
f 376/4/6 366/4/6 378/4/6
f 373/4/6 374/4/6 379/4/6
f 371/4/6 372/4/6 379/4/6
f 372/4/6 373/4/6 379/4/6
f 379/4/6 374/4/6 380/4/6
f 365/4/6 367/4/6 381/4/6
f 377/4/6 378/4/6 382/4/6
f 370/4/6 377/4/6 382/4/6
f 365/4/6 381/4/6 383/4/6
f 381/4/6 382/4/6 383/4/6
f 382/4/6 378/4/6 384/4/6
f 383/4/6 382/4/6 384/4/6
f 378/4/6 366/4/6 384/4/6
f 385/1/6 386/1/6 391/1/6
f 391/1/6 386/1/6 392/1/6
f 387/1/6 388/1/6 393/1/6
f 393/1/6 388/1/6 394/1/6
f 389/1/6 390/1/6 397/1/6
f 397/1/6 390/1/6 398/1/6
f 395/1/6 396/1/6 399/1/6
f 399/1/6 396/1/6 400/1/6
f 401/1/6 402/1/6 405/1/6
f 405/1/6 402/1/6 406/1/6
f 403/1/6 404/1/6 407/1/6
f 407/1/6 404/1/6 408/1/6
f 409/1/6 410/1/6 413/1/6
f 413/1/6 410/1/6 414/1/6
f 411/1/6 412/1/6 415/1/6
f 415/1/6 412/1/6 416/1/6
f 417/1/6 418/1/6 421/1/6
f 421/1/6 418/1/6 422/1/6
f 419/3/6 420/3/6 423/3/6
f 423/3/6 420/3/6 424/3/6
f 419/3/6 423/3/6 425/3/6
f 424/3/6 420/3/6 426/3/6
f 419/3/6 425/3/6 427/3/6
f 425/3/6 426/3/6 427/3/6
f 426/3/6 420/3/6 428/3/6
f 427/3/6 426/3/6 428/3/6
f 417/1/6 421/1/6 429/1/6
f 422/1/6 418/1/6 430/1/6
f 417/1/6 429/1/6 431/1/6
f 429/1/6 430/1/6 431/1/6
f 430/1/6 418/1/6 432/1/6
f 431/1/6 430/1/6 432/1/6
f 435/3/6 436/3/6 437/3/6
f 437/3/6 436/3/6 438/3/6
f 435/3/6 437/3/6 439/3/6
f 438/3/6 436/3/6 440/3/6
f 435/3/6 439/3/6 441/3/6
f 439/3/6 440/3/6 441/3/6
f 440/3/6 436/3/6 442/3/6
f 441/3/6 440/3/6 442/3/6
f 433/1/6 434/1/6 443/1/6
f 443/1/6 434/1/6 444/1/6
f 445/3/6 446/3/6 447/3/6
f 447/3/6 446/3/6 448/3/6
f 445/3/6 447/3/6 449/3/6
f 448/3/6 446/3/6 450/3/6
f 445/3/6 449/3/6 451/3/6
f 449/3/6 450/3/6 451/3/6
f 450/3/6 446/3/6 452/3/6
f 451/3/6 450/3/6 452/3/6
f 453/3/6 454/3/6 455/3/6
f 455/3/6 454/3/6 456/3/6
